<svg xmlns="http://www.w3.org/2000/svg" viewBox="0 0 100 100" width="100" height="100">
  <defs>
    <linearGradient id="grad1" x1="0%" y1="0%" x2="100%" y2="100%">
      <stop offset="0%" style="stop-color:#4F46E5;stop-opacity:1" />
      <stop offset="100%" style="stop-color:#7C3AED;stop-opacity:1" />
    </linearGradient>
  </defs>
  <circle cx="50" cy="50" r="48" fill="url(#grad1)" stroke="#3B82F6" stroke-width="2"/>
  
  <!-- Abacus beads -->
  <g fill="white">
    <!-- Top row -->
    <circle cx="25" cy="25" r="4"/>
    <circle cx="40" cy="25" r="4"/>
    <circle cx="55" cy="25" r="4"/>
    <circle cx="70" cy="25" r="4"/>
    
    <!-- Middle row -->
    <circle cx="30" cy="40" r="4"/>
    <circle cx="45" cy="40" r="4"/>
    <circle cx="60" cy="40" r="4"/>
    
    <!-- Bottom row -->
    <circle cx="25" cy="55" r="4"/>
    <circle cx="40" cy="55" r="4"/>
    <circle cx="55" cy="55" r="4"/>
    <circle cx="70" cy="55" r="4"/>
    
    <!-- AI Circuit pattern -->
    <g stroke="white" stroke-width="1.5" fill="none">
      <path d="M25 70 L40 70 L45 75 L55 75 L60 70 L75 70"/>
      <circle cx="35" cy="75" r="2" fill="white"/>
      <circle cx="50" cy="75" r="2" fill="white"/>
      <circle cx="65" cy="75" r="2" fill="white"/>
    </g>
  </g>
  
  <!-- AI text -->
  <text x="50" y="88" text-anchor="middle" font-family="Arial, sans-serif" font-size="8" font-weight="bold" fill="white">AI</text>
</svg> 